<svg width="60" height="32" viewBox="0 0 60 32" fill="none" xmlns="http://www.w3.org/2000/svg">
<g clip-path="url(#clip0)">
<path d="M15.2296 11.9999L17.8963 18.1036H12.4444L15.2296 11.9999ZM14.7555 7.05176L6.39998 25.0073H9.33331L11.3481 20.6518H19.0518L20.9481 25.0073H23.9111L15.8518 7.05176H14.7555Z" fill="white"/>
<path d="M29.3926 25.0073H26.6666V7.05176H29.3926V23.9406V25.0073Z" fill="white"/>
<path d="M43.6148 15.6444H51.0518V16.237C51.0518 17.6 50.9037 18.7852 50.5777 19.8222C50.2815 20.7704 49.7481 21.6889 49.0074 22.5185C47.3481 24.3852 45.2148 25.3333 42.637 25.3333C40.1185 25.3333 37.9852 24.4148 36.1777 22.6074C34.4 20.7704 33.4814 18.6074 33.4814 16.0593C33.4814 13.4518 34.4 11.2296 36.2074 9.42221C38.0444 7.58517 40.237 6.69629 42.874 6.69629C44.2666 6.69629 45.6 6.99258 46.8148 7.55555C47.9703 8.11851 49.1259 9.06666 50.2518 10.3407L48.3259 12.1778C46.8444 10.2222 45.0666 9.24444 42.9333 9.24444C41.037 9.24444 39.437 9.89628 38.1629 11.2C36.8888 12.4741 36.237 14.1037 36.237 16.0296C36.237 18.0444 36.9481 19.6741 38.4 20.9778C39.7333 22.1926 41.1851 22.7852 42.7555 22.7852C44.0889 22.7852 45.274 22.3407 46.3407 21.4518C47.4074 20.5333 48 19.4667 48.1185 18.1926H43.6444V15.6444H43.6148Z" fill="white"/>
<path d="M2.4 2.48904H56.6519V29.5409H2.4V2.48904ZM-0.0592651 32.0298H59.1111V0.0297852H-0.0592651V32.0298Z" fill="white"/>
</g>
<defs>
<clipPath id="clip0">
<rect width="59.2593" height="32" fill="white"/>
</clipPath>
</defs>
</svg>
