<svg width="10" height="20" viewBox="0 0 10 20" fill="none" xmlns="http://www.w3.org/2000/svg">
<path fill-rule="evenodd" clip-rule="evenodd" d="M0.949921 2.36108H9.05008C9.57472 2.36108 10 2.77639 10 3.28014V19.0771C10 19.5847 9.57075 19.9962 9.05008 19.9962H0.949921C0.429253 20 0 19.5847 0 19.0771V3.28398C0 2.77639 0.429253 2.36108 0.949921 2.36108ZM3.46979 0H6.52623C6.89587 0 7.19793 0.292251 7.19793 0.649875V1.37281H2.79809V0.649875C2.79809 0.292251 3.10016 0 3.46979 0ZM4.45946 7.92924L2.42051 11.0633C2.30127 11.2478 2.29332 11.4632 2.40461 11.6555C2.51192 11.8477 2.70668 11.9554 2.93323 11.9554H3.8275C4.16137 11.9554 4.43164 12.2169 4.43164 12.5399V14.1204C4.43164 14.3857 4.60652 14.6087 4.86884 14.6818C5.13116 14.7549 5.40143 14.6549 5.54849 14.4318L7.58744 11.2978C7.70668 11.1132 7.71463 10.8979 7.60334 10.7056C7.49603 10.5134 7.30127 10.4057 7.07472 10.4057H6.18045C5.84658 10.4057 5.57631 10.1442 5.57631 9.82119V8.24072C5.57631 7.97539 5.40143 7.75236 5.13911 7.67929C4.87679 7.60238 4.60652 7.70236 4.45946 7.92924Z" fill="#FC9F27"/>
</svg>
