<svg width="327" height="57" viewBox="0 0 327 57" fill="none" xmlns="http://www.w3.org/2000/svg">
<path d="M191.391 56.0078C147.651 56.0078 48.497 56.0078 4.75583 56.0078C1.57202 56.0078 0.22655 55.2103 0.208627 53.3163C0.122855 43.9408 -0.0704499 34.5646 0.0268438 25.1892C-0.113887 20.1949 0.476345 15.2028 1.79092 10.269C1.93046 9.81333 2.01368 9.341 2.22875 8.89444C2.29596 8.69597 2.48881 8.52034 2.76766 8.40365C3.0465 8.28697 3.39012 8.23807 3.72783 8.2671C4.06719 8.27125 4.3921 8.34933 4.64069 8.48644C4.88929 8.62355 5.0442 8.81012 5.07587 9.0106C5.12106 9.29659 5.1373 9.58397 5.12451 9.87111C4.93633 20.7616 6.11792 31.6286 6.75033 42.5047C6.90651 45.197 7.14717 47.89 7.16253 50.583C7.16253 51.6204 7.67464 51.8862 9.41312 51.8847C36.9549 51.8513 273.448 51.862 317.424 51.8589C320.241 51.8589 319.968 52.0268 319.816 50.3712C318.792 39.2832 318.651 28.1815 319.068 17.0821C319.12 13.6693 319.655 10.2651 320.668 6.90542C321.147 5.43209 320.805 5.1647 318.251 4.94598C313.192 4.58455 308.104 4.38963 303.008 4.36202C292.7 4.16152 50.3225 3.85625 43.5913 3.7598C32.4871 3.60031 21.3917 3.83574 10.2977 4.08028C7.27648 4.14712 5.90669 3.62455 5.835 2.44513C5.76203 1.24367 7.24319 0.562497 10.1876 0.524524C24.1416 0.343775 38.0866 0.0452953 52.0367 0.0346629C79.9523 0.0118794 163.284 0.00500055 191.199 0.00879781C221.826 0.0128482 252.453 0.0278464 283.081 0.0536678C295.089 0.0635407 307.104 0.15234 319.094 0.641427C320.549 0.684595 321.981 0.873307 323.33 1.19961C324.459 1.41625 325.433 1.85155 326.096 2.43567C326.759 3.01979 327.073 3.71897 326.986 4.42126C326.866 9.12986 325.822 13.7997 325.675 18.5076C325.314 30.0421 325.431 41.5668 326.87 53.0771C327.126 55.1215 325.872 55.9288 322.421 55.9129C279.351 55.7078 191.995 56.0078 191.391 56.0078Z" fill="#2FC9DA"/>
</svg>
