<svg width="20" height="16" viewBox="0 0 20 16" fill="none" xmlns="http://www.w3.org/2000/svg">
<path d="M18.38 4.57012L17.15 6.42012C17.7432 7.6032 18.0336 8.91495 17.9952 10.2378C17.9568 11.5607 17.5908 12.8534 16.93 14.0001H3.07001C2.21118 12.5102 1.85531 10.7832 2.05515 9.07519C2.255 7.36714 2.99992 5.76895 4.17949 4.51755C5.35906 3.26615 6.91048 2.42816 8.60375 2.12782C10.297 1.82747 12.042 2.08076 13.58 2.85012L15.43 1.62012C13.5465 0.412337 11.3123 -0.128874 9.0849 0.0830575C6.85747 0.294989 4.76546 1.24782 3.14351 2.78913C1.52155 4.33045 0.463374 6.37119 0.138229 8.58494C-0.186915 10.7987 0.239763 13.0575 1.35001 15.0001C1.52452 15.3024 1.7751 15.5537 2.07684 15.7292C2.37859 15.9046 2.72099 15.998 3.07001 16.0001H16.92C17.2724 16.0015 17.619 15.9098 17.9245 15.7342C18.2301 15.5586 18.4838 15.3053 18.66 15.0001C19.5814 13.404 20.0438 11.5844 19.9961 9.74208C19.9485 7.89976 19.3927 6.10644 18.39 4.56012L18.38 4.57012ZM8.59001 11.4101C8.77576 11.5961 8.99634 11.7436 9.23913 11.8442C9.48193 11.9449 9.74218 11.9967 10.005 11.9967C10.2678 11.9967 10.5281 11.9449 10.7709 11.8442C11.0137 11.7436 11.2343 11.5961 11.42 11.4101L17.08 2.92012L8.59001 8.58012C8.40406 8.76587 8.25654 8.98645 8.15589 9.22924C8.05525 9.47204 8.00344 9.73229 8.00344 9.99512C8.00344 10.258 8.05525 10.5182 8.15589 10.761C8.25654 11.0038 8.40406 11.2244 8.59001 11.4101Z" fill="#9E9E9E"/>
</svg>
