<svg width="10" height="16" viewBox="0 0 10 16" fill="none" xmlns="http://www.w3.org/2000/svg">
<path d="M6.4492 8.00082L9.88039 4.55529C10.0804 4.35497 10.1796 4.07495 10.1524 3.79319C10.1244 3.51107 9.97129 3.25622 9.73706 3.09821L5.37386 0.162022C5.08266 -0.0344458 4.70406 -0.0533236 4.39467 0.111332C4.08494 0.276337 3.88532 0.598657 3.88532 0.948943V5.51001L1.61685 3.21672C1.24769 2.84476 0.652688 2.84231 0.280727 3.21077C-0.0912334 3.57994 -0.09403 4.18088 0.275134 4.55284L3.6941 8.00012L0.275134 11.4471C-0.09403 11.8187 -0.0912334 12.4196 0.280727 12.7895C0.652688 13.1583 1.24804 13.1562 1.61685 12.7835L3.88532 10.4902V15.0509C3.88532 15.4016 4.08494 15.7239 4.39467 15.8886C4.70406 16.0536 5.08266 16.0343 5.37386 15.8375L9.73671 12.9024C9.97164 12.744 10.1244 12.4888 10.152 12.2074C10.1793 11.9253 10.08 11.646 9.88004 11.445L6.4492 8.00082ZM5.81085 2.73219L7.73952 4.03021L5.81085 5.96657V2.73219ZM5.81085 13.2698V10.0354L7.73952 11.9718L5.81085 13.2698Z" fill="#17A4A0"/>
</svg>
