<svg width="20" height="12" viewBox="0 0 20 12" fill="none" xmlns="http://www.w3.org/2000/svg">
<path d="M9.99967 0.583328C10.7088 0.583328 11.3888 0.85883 11.8902 1.34923C12.3916 1.83962 12.6733 2.50474 12.6733 3.19827C12.6733 3.8918 12.3916 4.55692 11.8902 5.04731C11.3888 5.53771 10.7088 5.81321 9.99967 5.81321C9.29059 5.81321 8.61054 5.53771 8.10915 5.04731C7.60775 4.55692 7.32606 3.8918 7.32606 3.19827C7.32606 2.50474 7.60775 1.83962 8.10915 1.34923C8.61054 0.85883 9.29059 0.583328 9.99967 0.583328ZM4.65245 2.45114C5.08023 2.45114 5.47745 2.56321 5.8212 2.76494C5.70662 3.83333 6.02745 4.89425 6.6844 5.72356C6.30245 6.4408 5.53856 6.9339 4.65245 6.9339C4.04466 6.9339 3.46177 6.69776 3.032 6.27742C2.60223 5.85708 2.36079 5.28697 2.36079 4.69252C2.36079 4.09807 2.60223 3.52797 3.032 3.10763C3.46177 2.68729 4.04466 2.45114 4.65245 2.45114ZM15.3469 2.45114C15.9547 2.45114 16.5376 2.68729 16.9673 3.10763C17.3971 3.52797 17.6386 4.09807 17.6386 4.69252C17.6386 5.28697 17.3971 5.85708 16.9673 6.27742C16.5376 6.69776 15.9547 6.9339 15.3469 6.9339C14.4608 6.9339 13.6969 6.4408 13.315 5.72356C13.981 4.88261 14.2901 3.82302 14.1781 2.76494C14.5219 2.56321 14.9191 2.45114 15.3469 2.45114ZM5.0344 10.1092C5.0344 8.56264 7.25731 7.30747 9.99967 7.30747C12.742 7.30747 14.965 8.56264 14.965 10.1092V11.4167H5.0344V10.1092ZM0.833008 11.4167V10.296C0.833008 9.25747 2.27676 8.38333 4.23231 8.1293C3.78162 8.63735 3.50662 9.33965 3.50662 10.1092V11.4167H0.833008ZM19.1663 11.4167H16.4927V10.1092C16.4927 9.33965 16.2177 8.63735 15.767 8.1293C17.7226 8.38333 19.1663 9.25747 19.1663 10.296V11.4167Z" fill="#17A4A0"/>
</svg>
